<svg height="34" viewBox="0 0 34 34" width="34" xmlns="http://www.w3.org/2000/svg"><g fill="none" fill-rule="evenodd" transform="translate(-4 -3)"><path d="m0 0h40v40h-40z"/><g fill="#fff"><path d="m20.033 20.8h13.6c.442 0 .8.358.8.8 0 8.395-6.805 15.2-15.2 15.2-8.394 0-15.2-6.805-15.2-15.2s6.806-15.2 15.2-15.2c.442 0 .8.358.8.8z"/><path d="m37.633 16.8c0 .442-.358.8-.8.8h-12.8c-.441 0-.8-.358-.8-.8v-12.8c0-.442.359-.8.8-.8 7.511 0 13.6 6.089 13.6 13.6z" fill-rule="nonzero" opacity=".5"/></g></g></svg>