<svg height="34" viewBox="0 0 34 34" width="34" xmlns="http://www.w3.org/2000/svg"><g fill="none" fill-rule="evenodd" transform="translate(-3 -3)"><path d="m0 0h40v40h-40z"/><g fill="#fff"><path d="m19.246 31.755 1.133 1.134c.462.461.462 1.21 0 1.671-.461.461-1.21.461-1.67 0l-3.152-3.151c-.461-.462-.461-1.21 0-1.671l3.151-3.152c.462-.461 1.21-.461 1.671 0 .462.462.462 1.21 0 1.672l-1.133 1.133h7.782v2.364zm12.509-11.913 1.134-1.134c.461-.461 1.21-.461 1.671 0 .461.462.461 1.21 0 1.671l-3.151 3.152c-.231.23-.533.346-.836.346-.302 0-.605-.116-.835-.346l-3.152-3.152c-.461-.461-.461-1.21 0-1.67.462-.462 1.21-.462 1.672 0l1.133 1.133v-7.782h2.364zm-11.913-10.146h-7.782v-2.363h7.782l-1.134-1.134c-.461-.461-.461-1.21 0-1.671.462-.462 1.21-.462 1.671 0l3.152 3.151c.461.462.461 1.21 0 1.671l-3.152 3.151c-.461.462-1.21.462-1.67 0-.462-.461-.462-1.21 0-1.67zm-12.51 9.55-1.132 1.133c-.461.462-1.21.462-1.671 0-.462-.461-.462-1.21 0-1.67l3.151-3.152c.462-.461 1.21-.461 1.671 0l3.151 3.151c.462.462.462 1.21 0 1.671-.461.462-1.21.462-1.67 0l-1.135-1.133v7.782h-2.364v-7.782z" opacity=".5"/><path d="m11.666 25.059c1.305 0 2.363 1.058 2.363 2.363v6.302c0 1.306-1.058 2.364-2.363 2.364h-6.303c-1.305 0-2.363-1.058-2.363-2.364v-6.302c0-1.305 1.058-2.363 2.363-2.363zm22.058 0c1.306 0 2.364 1.058 2.364 2.363v6.302c0 1.306-1.058 2.364-2.364 2.364h-6.302c-1.305 0-2.363-1.058-2.363-2.364v-6.302c0-1.305 1.058-2.363 2.363-2.363zm-22.058-22.059c1.305 0 2.363 1.058 2.363 2.363v6.303c0 1.305-1.058 2.363-2.363 2.363h-6.303c-1.305.001-2.363-1.058-2.363-2.363v-6.303c0-1.305 1.058-2.363 2.363-2.363zm22.058 0c1.306 0 2.364 1.058 2.364 2.363v6.303c0 1.305-1.058 2.363-2.364 2.363h-6.302c-1.305 0-2.363-1.058-2.363-2.363v-6.303c0-1.305 1.058-2.363 2.363-2.363z"/></g></g></svg>