<svg height="33" viewBox="0 0 31 33" width="31" xmlns="http://www.w3.org/2000/svg"><g fill="none" fill-rule="evenodd" transform="translate(-5 -4)"><path d="m0 0h40v40h-40z"/><g fill="#fff"><path d="m25.4 33.464v-3.229l.117-.283 5.483-5.482v3.228l-.117.283zm-7.883-5.483-.117-.283v-3.228l5.483 5.482.117.283v3.229zm-2.517-3.511v3.228l-.117.283-5.483 5.483v-3.229l.117-.283zm16-17.6v3.228l-.117.283-5.483 5.483v-3.229l.117-.283zm-13.6 0 5.483 5.482.117.283v3.229l-5.483-5.483-.117-.283zm-2.4 0v3.228l-.117.283-5.483 5.483v-3.229l.117-.283z" fill-rule="nonzero" opacity=".5"/><path d="m24.2 29.767c1.767 0 3.2 1.432 3.2 3.2 0 1.767-1.433 3.2-3.2 3.2s-3.2-1.433-3.2-3.2c0-1.768 1.433-3.2 3.2-3.2zm-16 0c1.767 0 3.2 1.432 3.2 3.2 0 1.767-1.433 3.2-3.2 3.2s-3.2-1.433-3.2-3.2c0-1.768 1.433-3.2 3.2-3.2zm8-8c1.767 0 3.2 1.432 3.2 3.2 0 1.767-1.433 3.2-3.2 3.2s-3.2-1.433-3.2-3.2c0-1.768 1.433-3.2 3.2-3.2zm16 0c1.767 0 3.2 1.432 3.2 3.2 0 1.767-1.433 3.2-3.2 3.2s-3.2-1.433-3.2-3.2c0-1.768 1.433-3.2 3.2-3.2zm-8-9.6c1.767 0 3.2 1.432 3.2 3.2 0 1.767-1.433 3.2-3.2 3.2s-3.2-1.433-3.2-3.2c0-1.768 1.433-3.2 3.2-3.2zm-16 0c1.767 0 3.2 1.432 3.2 3.2 0 1.767-1.433 3.2-3.2 3.2s-3.2-1.433-3.2-3.2c0-1.768 1.433-3.2 3.2-3.2zm8-8c1.767 0 3.2 1.432 3.2 3.2 0 1.767-1.433 3.2-3.2 3.2s-3.2-1.433-3.2-3.2c0-1.768 1.433-3.2 3.2-3.2zm16 0c1.767 0 3.2 1.432 3.2 3.2 0 1.767-1.433 3.2-3.2 3.2s-3.2-1.433-3.2-3.2c0-1.768 1.433-3.2 3.2-3.2z"/></g></g></svg>