<svg height="34" viewBox="0 0 32 34" width="32" xmlns="http://www.w3.org/2000/svg"><g fill="none" fill-rule="evenodd" transform="translate(-4 -3)"><path d="m0 0h40v40h-40z"/><path d="m20.272 3.248 14.4 5.2c.317.114.528.415.528.752v10.8c0 8.41-5.063 14.035-14.987 16.771-.138.038-.283.039-.42.002-9.928-2.664-14.993-8.293-14.993-16.773v-10.8c0-.337.211-.638.528-.752l14.4-5.2c.176-.064.368-.064.544 0zm5.368 11.41-6.796 7.372-3.236-3.401c-.304-.32-.81-.333-1.13-.028-.321.304-.334.81-.029 1.13l3.825 4.02c.319.335.854.331 1.168-.009l7.375-8c.3-.325.279-.83-.046-1.13s-.831-.28-1.13.046z" fill="#fff"/></g></svg>