<?xml version="1.0" encoding="utf-8"?>
<!-- Generator: Adobe Illustrator 25.2.0, SVG Export Plug-In . SVG Version: 6.00 Build 0)  -->
<svg version="1.1" xmlns="http://www.w3.org/2000/svg" xmlns:xlink="http://www.w3.org/1999/xlink" x="0px" y="0px"
	 viewBox="0 0 2601.58 825.7" style="enable-background:new 0 0 2601.58 825.7;" xml:space="preserve">
<style type="text/css">
	.st0{fill:#303E47;}
	.st1{opacity:0.5;}
	.st2{fill:url(#SVGID_1_);}
	.st3{fill:url(#SVGID_2_);}
	.st4{fill:url(#SVGID_3_);}
	.st5{fill:url(#SVGID_4_);}
	.st6{fill:#FFFFFF;}
	.st7{fill:url(#SVGID_5_);}
	.st8{fill:url(#SVGID_6_);}
	.st9{fill:url(#SVGID_7_);}
	.st10{opacity:0.5;fill:url(#SVGID_8_);}
	.st11{fill:url(#SVGID_9_);}
	.st12{fill:url(#SVGID_10_);}
	.st13{fill:url(#SVGID_11_);}
	.st14{fill:url(#SVGID_12_);}
	.st15{fill:url(#SVGID_13_);}
	.st16{fill:url(#SVGID_14_);}
	.st17{fill:url(#SVGID_15_);}
	.st18{fill:url(#SVGID_16_);}
	.st19{fill:url(#SVGID_17_);}
	.st20{fill:url(#SVGID_18_);}
	.st21{fill:url(#SVGID_19_);}
	.st22{opacity:0.5;fill:url(#SVGID_20_);}
	.st23{fill:#F4F7FA;}
	.st24{fill:none;stroke:#F4F7FA;stroke-width:14;stroke-miterlimit:10;}
	.st25{opacity:0.78;fill:#A6CCF4;}
	.st26{opacity:0.14;}
	.st27{fill:#0459A5;}
	.st28{fill:url(#SVGID_21_);}
	.st29{opacity:0.5;fill:url(#SVGID_22_);}
	.st30{opacity:0.5;fill:url(#SVGID_23_);}
</style>
<g id="Logo">
	<g>
		<path class="st0" d="M693.03,479.59h-95.48l-18.17,50.2H549.2l80.39-213.13h31.72l80.08,213.13H711.2L693.03,479.59z
			 M685.02,457.72l-39.73-109.65l-39.73,109.65H685.02z"/>
		<path class="st0" d="M898.15,375.79c14.17,11.5,22.89,26.9,26.18,46.2h-29.57c-2.05-12.11-7.65-21.61-16.79-28.49
			c-9.14-6.88-20.48-10.32-34.03-10.32c-9.86,0-18.84,2.26-26.95,6.78c-8.11,4.52-14.63,11.45-19.56,20.79
			c-4.93,9.35-7.39,20.9-7.39,34.65c0,13.76,2.46,25.31,7.39,34.65c4.93,9.34,11.44,16.27,19.56,20.79
			c8.11,4.52,17.09,6.78,26.95,6.78c13.55,0,24.89-3.49,34.03-10.47c9.13-6.98,14.73-16.53,16.79-28.64h29.57
			c-3.29,19.51-12.01,34.96-26.18,46.35c-14.17,11.4-32.03,17.09-53.59,17.09c-16.22,0-30.6-3.49-43.12-10.47
			c-12.53-6.98-22.33-16.99-29.41-30.03c-7.08-13.04-10.63-28.38-10.63-46.05c0-17.66,3.54-33.06,10.63-46.2
			c7.08-13.14,16.89-23.2,29.41-30.18c12.52-6.98,26.9-10.47,43.12-10.47C866.12,358.54,883.99,364.29,898.15,375.79z"/>
		<path class="st0" d="M972.69,360.7l54.82,133.05l50.82-133.05h31.11l-100.41,249.17H977.3l35.11-82.85L941.27,360.7H972.69z"/>
		<path class="st0" d="M1296.08,329.44c17.04,12.63,29.05,30.03,36.04,52.21h-22.79c-5.75-15.6-15.3-28.03-28.64-37.27
			c-13.35-9.24-29.88-13.86-49.59-13.86c-14.99,0-28.6,3.7-40.81,11.09c-12.22,7.39-21.82,17.97-28.8,31.72
			c-6.98,13.76-10.47,29.77-10.47,48.05c0,18.28,3.49,34.24,10.47,47.89c6.98,13.66,16.58,24.18,28.8,31.57
			c12.21,7.39,25.82,11.09,40.81,11.09c19.71,0,36.24-4.62,49.59-13.86c13.34-9.24,22.89-21.66,28.64-37.27h22.79
			c-6.98,22.18-18.99,39.58-36.04,52.21c-17.05,12.63-38.61,18.94-64.68,18.94c-19.92,0-37.68-4.72-53.28-14.17
			c-15.61-9.44-27.72-22.53-36.34-39.27c-8.62-16.73-12.94-35.78-12.94-57.13c0-21.56,4.31-40.76,12.94-57.6
			c8.62-16.83,20.74-29.92,36.34-39.27c15.6-9.34,33.37-14.01,53.28-14.01C1257.47,310.49,1279.03,316.81,1296.08,329.44z"/>
		<path class="st0" d="M1503.21,377.18c12.21,12.43,18.33,30.65,18.33,54.67v97.94h-21.25v-96.4c0-18.27-4.62-32.29-13.86-42.04
			c-9.24-9.75-21.87-14.63-37.88-14.63c-16.84,0-30.24,5.39-40.19,16.17c-9.96,10.78-14.94,26.64-14.94,47.59v89.32h-21.87V301.87
			h21.87v101.02c4.31-14.37,12.11-25.36,23.41-32.96c11.29-7.59,24.23-11.4,38.81-11.4
			C1475.12,358.54,1490.99,364.76,1503.21,377.18z"/>
		<path class="st0" d="M1678.61,502.69c10.27-7.59,16.43-17.86,18.48-30.8h22.79c-3.08,17.86-11.6,32.34-25.56,43.43
			c-13.97,11.09-31.62,16.63-52.98,16.63c-16.02,0-30.24-3.44-42.66-10.32c-12.43-6.88-22.13-16.83-29.11-29.88
			c-6.98-13.04-10.47-28.38-10.47-46.04c0-17.66,3.49-33,10.47-46.05c6.98-13.04,16.68-22.99,29.11-29.88
			c12.42-6.88,26.64-10.32,42.66-10.32c16.42,0,30.65,3.44,42.66,10.32c12.01,6.88,21.15,16.07,27.41,27.57
			c6.26,11.5,9.39,24.02,9.39,37.58c0,5.75-0.41,10.99-1.23,15.71h-139.22c0.2,14.17,3.13,26.03,8.78,35.57
			c5.64,9.55,12.98,16.58,22.02,21.1c9.03,4.52,18.79,6.78,29.26,6.78C1655.61,514.08,1668.34,510.28,1678.61,502.69z
			 M1611.47,383.8c-9.04,4.52-16.38,11.45-22.02,20.79c-5.65,9.35-8.68,21-9.09,34.96h118.89c0.82-13.75-1.44-25.36-6.78-34.8
			c-5.34-9.44-12.53-16.42-21.56-20.94c-9.04-4.51-18.89-6.78-29.57-6.78C1630.46,377.02,1620.5,379.28,1611.47,383.8z"/>
		<path class="st0" d="M1886.97,376.41c14.06,11.29,22.64,26.29,25.72,44.97h-22.48c-2.26-13.35-8.52-23.87-18.79-31.57
			c-10.27-7.7-22.9-11.55-37.88-11.55c-10.89,0-20.9,2.46-30.03,7.39c-9.14,4.93-16.43,12.47-21.87,22.64
			c-5.44,10.16-8.16,22.64-8.16,37.42c0,14.78,2.72,27.26,8.16,37.42c5.44,10.16,12.73,17.71,21.87,22.64
			c9.13,4.93,19.14,7.39,30.03,7.39c14.99,0,27.61-3.85,37.88-11.55c10.27-7.7,16.53-18.22,18.79-31.57h22.48
			c-3.08,18.69-11.66,33.68-25.72,44.97c-14.07,11.29-31.78,16.94-53.13,16.94c-16.02,0-30.24-3.44-42.66-10.32
			c-12.43-6.88-22.13-16.83-29.11-29.88c-6.98-13.04-10.47-28.38-10.47-46.04c0-17.66,3.49-33,10.47-46.05
			c6.98-13.04,16.68-22.99,29.11-29.88c12.42-6.88,26.64-10.32,42.66-10.32C1855.19,359.47,1872.9,365.12,1886.97,376.41z"/>
		<path class="st0" d="M2041.43,529.79l-68.07-77v77h-21.87V301.87h21.87v133.67l66.84-73.92h26.8l-77.31,83.16l79.46,85.01H2041.43
			z"/>
		<path class="st0" d="M2206.2,502.69c10.27-7.59,16.43-17.86,18.48-30.8h22.79c-3.08,17.86-11.6,32.34-25.56,43.43
			c-13.97,11.09-31.62,16.63-52.98,16.63c-16.02,0-30.24-3.44-42.66-10.32c-12.43-6.88-22.13-16.83-29.11-29.88
			c-6.98-13.04-10.47-28.38-10.47-46.04c0-17.66,3.49-33,10.47-46.05c6.98-13.04,16.68-22.99,29.11-29.88
			c12.42-6.88,26.64-10.32,42.66-10.32c16.42,0,30.65,3.44,42.66,10.32c12.01,6.88,21.15,16.07,27.41,27.57
			c6.26,11.5,9.39,24.02,9.39,37.58c0,5.75-0.41,10.99-1.23,15.71h-139.22c0.2,14.17,3.13,26.03,8.78,35.57
			c5.64,9.55,12.98,16.58,22.02,21.1c9.03,4.52,18.79,6.78,29.26,6.78C2183.2,514.08,2195.93,510.28,2206.2,502.69z M2139.06,383.8
			c-9.04,4.52-16.38,11.45-22.02,20.79c-5.65,9.35-8.68,21-9.09,34.96h118.89c0.82-13.75-1.44-25.36-6.78-34.8
			c-5.34-9.44-12.53-16.42-21.56-20.94c-9.04-4.51-18.89-6.78-29.57-6.78C2158.05,377.02,2148.09,379.28,2139.06,383.8z"/>
		<path class="st0" d="M2332.79,368.4c10.88-6.57,24.12-9.86,39.73-9.86v23.41h-7.08c-16.22,0-29.67,4.36-40.35,13.09
			c-10.68,8.73-16.02,22.95-16.02,42.66v92.09h-21.87V361.62h21.87v34.8C2314,384.31,2321.9,374.97,2332.79,368.4z"/>
	</g>
	<g class="st1">
		
			<linearGradient id="SVGID_1_" gradientUnits="userSpaceOnUse" x1="9495.3564" y1="-7313.603" x2="9501.585" y2="-7313.603" gradientTransform="matrix(-0.6226 0.8768 0.7039 1.1689 11313.0537 493.136)">
			<stop  offset="0" style="stop-color:#000000"/>
			<stop  offset="1" style="stop-color:#BA9B68"/>
		</linearGradient>
		<path class="st2" d="M254.15,274.28c-0.87-0.61-1.93-1-2.25-2.14c-0.34-1.5,0.46-2.62,0-3.67c-0.25-0.74-0.84-1.71-1.32-3.03
			c-0.03-0.08-0.06-0.17-0.1-0.21c-0.03-0.04-0.06-0.03-0.08-0.01c-0.92,0.5-1.65,2.8-1.82,4.66c-0.45,2.99,0.03,6.77,4.12,7.36
			c0.35,0.04,1.08-0.08,1.79-0.59c0.42-0.29,0.57-0.53,0.65-0.69C255.64,274.89,254.74,274.76,254.15,274.28z"/>
	</g>
	<g class="st1">
		
			<linearGradient id="SVGID_2_" gradientUnits="userSpaceOnUse" x1="9495.5762" y1="-7313.4194" x2="9501.8047" y2="-7313.4194" gradientTransform="matrix(-0.6226 0.8768 0.7039 1.1689 11313.0537 493.136)">
			<stop  offset="0" style="stop-color:#000000"/>
			<stop  offset="1" style="stop-color:#BA9B68"/>
		</linearGradient>
		<path class="st3" d="M254.14,274.69c-0.87-0.61-1.93-1-2.25-2.14c-0.34-1.5,0.46-2.62,0-3.67c-0.25-0.74-0.85-1.71-1.32-3.03
			c-0.03-0.08-0.06-0.17-0.1-0.21c-0.03-0.04-0.06-0.03-0.08-0.01c-0.92,0.5-1.65,2.8-1.82,4.66c-0.45,2.99,0.02,6.77,4.12,7.36
			c0.36,0.04,1.08-0.08,1.79-0.59c0.42-0.3,0.57-0.53,0.65-0.69C255.63,275.29,254.73,275.17,254.14,274.69z"/>
	</g>
	<g class="st1">
		
			<linearGradient id="SVGID_3_" gradientUnits="userSpaceOnUse" x1="9496.1113" y1="-7312.7925" x2="9502.3398" y2="-7312.7925" gradientTransform="matrix(-0.6226 0.8768 0.7039 1.1689 11313.0537 493.136)">
			<stop  offset="0" style="stop-color:#000000"/>
			<stop  offset="1" style="stop-color:#BA9B68"/>
		</linearGradient>
		<path class="st4" d="M254.25,275.89c-0.87-0.62-1.93-1.01-2.25-2.14c-0.34-1.5,0.46-2.62,0-3.67c-0.25-0.74-0.84-1.71-1.32-3.03
			c-0.03-0.08-0.06-0.17-0.1-0.21c-0.03-0.04-0.06-0.03-0.08-0.02c-0.92,0.5-1.65,2.8-1.82,4.66c-0.45,2.99,0.02,6.77,4.12,7.36
			c0.36,0.04,1.08-0.08,1.79-0.59c0.42-0.3,0.57-0.53,0.65-0.69C255.74,276.49,254.84,276.37,254.25,275.89z"/>
	</g>
	<g class="st1">
		
			<linearGradient id="SVGID_4_" gradientUnits="userSpaceOnUse" x1="9496.3311" y1="-7312.6089" x2="9502.5605" y2="-7312.6089" gradientTransform="matrix(-0.6226 0.8768 0.7039 1.1689 11313.0537 493.136)">
			<stop  offset="0" style="stop-color:#000000"/>
			<stop  offset="1" style="stop-color:#BA9B68"/>
		</linearGradient>
		<path class="st5" d="M254.24,276.3c-0.87-0.62-1.93-1-2.25-2.14c-0.34-1.5,0.46-2.62,0-3.67c-0.25-0.74-0.84-1.71-1.32-3.03
			c-0.03-0.08-0.06-0.17-0.1-0.21c-0.03-0.04-0.06-0.03-0.08-0.01c-0.92,0.5-1.65,2.8-1.82,4.66c-0.45,2.99,0.03,6.78,4.12,7.36
			c0.36,0.04,1.08-0.08,1.79-0.59c0.42-0.3,0.57-0.52,0.65-0.69C255.73,276.9,254.83,276.78,254.24,276.3z"/>
	</g>
	<path class="st6" d="M339.07,361.93"/>
	<path class="st6" d="M300.37,442.93v0.17l0.14-0.09L300.37,442.93z"/>
</g>
<g id="Mascot">
	<g>
		<g>
			<g>
				<g>
					<g>
						
							<linearGradient id="SVGID_5_" gradientUnits="userSpaceOnUse" x1="9362.6846" y1="3760.0125" x2="9502.8027" y2="3760.0125" gradientTransform="matrix(-0.8615 -0.017 -0.015 0.7586 8479.9424 -2358.7661)">
							<stop  offset="0" style="stop-color:#E9003A"/>
							<stop  offset="1" style="stop-color:#E6A13B"/>
						</linearGradient>
						<path class="st7" d="M241.93,323l110.46,3.12c3.1,0.09,5.42,2.9,4.91,5.96l-1.2,7.2c-0.43,2.55-2.69,4.39-5.28,4.27
							l-108.42-4.81c-2.44-0.11-4.47-1.93-4.84-4.35l-0.84-5.51C236.24,325.73,238.74,322.91,241.93,323z"/>
						<g>
							<g>
								<g>
									<g>
										
											<linearGradient id="SVGID_6_" gradientUnits="userSpaceOnUse" x1="7777.0425" y1="2431.9602" x2="7790.9795" y2="2616.7791" gradientTransform="matrix(-0.9947 -0.0195 -0.0199 0.9998 8086.8047 -2120.3315)">
											<stop  offset="0.1346" style="stop-color:#F31C1F"/>
											<stop  offset="0.2024" style="stop-color:#F03B26"/>
											<stop  offset="0.2852" style="stop-color:#ED5A2C"/>
											<stop  offset="0.3763" style="stop-color:#EB7332"/>
											<stop  offset="0.4773" style="stop-color:#E98736"/>
											<stop  offset="0.5934" style="stop-color:#E89539"/>
											<stop  offset="0.7381" style="stop-color:#E79D3A"/>
											<stop  offset="1" style="stop-color:#E79F3B"/>
										</linearGradient>
										<path class="st8" d="M199.9,319.28c58.26,3.97,116.92,8.17,175.98,12.61c15.83,1.22,28.03-10.61,27.17-26.48
											c-0.84-16.97-1.72-33.95-2.62-50.95c-0.91-15.9-13.31-29.1-27.61-29.42c-53.86-1.38-107.32-2.52-160.39-3.44
											c-14.09-0.2-27.27,11.06-29.5,25.1c-2.32,15.1-4.68,30.19-7.07,45.25C173.55,305.97,184.28,318.18,199.9,319.28z"/>
									</g>
									<g>
										<g>
											
												<linearGradient id="SVGID_7_" gradientUnits="userSpaceOnUse" x1="8291.3701" y1="2834.6404" x2="8537.5459" y2="2834.6404" gradientTransform="matrix(-0.9295 -0.043 -0.0462 0.9989 8247.8994 -2191.1536)">
												<stop  offset="0.2438" style="stop-color:#E93F33"/>
												<stop  offset="1" style="stop-color:#E79F3B"/>
											</linearGradient>
											<path class="st9" d="M204.78,323.62c58.66,3.99,117.72,8.21,177.17,12.67c15.83,1.22,28.02-10.62,27.16-26.48
												c-0.85-16.96-1.73-33.95-2.65-50.95c-0.92-15.9-13.33-29.1-27.63-29.43c-54.23-1.4-108.06-2.56-161.49-3.48
												c-14.09-0.2-27.27,11.05-29.52,25.1c-2.33,15.1-4.7,30.19-7.09,45.25C178.44,310.31,189.16,322.52,204.78,323.62z"/>
										</g>
										
											<linearGradient id="SVGID_8_" gradientUnits="userSpaceOnUse" x1="7789.7578" y1="2542.9387" x2="7825.0137" y2="2501.5811" gradientTransform="matrix(-0.9998 -0.0197 -0.0197 0.9998 8074.4585 -2120.9084)">
											<stop  offset="0" style="stop-color:#000000;stop-opacity:0.4"/>
											<stop  offset="1" style="stop-color:#BA9B68"/>
										</linearGradient>
										<path class="st10" d="M208.36,252.3c3.37-3.17,6.35-5.02,12.31-8.73c7.79-4.85,16.72-5.98,16.58-8.5
											c-0.09-1.64-2.33-2.73-2.83-2.98c-7.66-3.75-23.91,5.48-30.27,12.62c-3.89,4.37-7.38,10.07-6.04,11.76
											c0.21,0.27,0.85,0.82,1.65,0.85C202.95,257.44,205.8,254.7,208.36,252.3z"/>
										<g>
											
												<linearGradient id="SVGID_9_" gradientUnits="userSpaceOnUse" x1="7504.7344" y1="2777.1387" x2="7542.4404" y2="2777.1387" gradientTransform="matrix(-0.9989 -0.0462 -0.0462 0.9989 8049.0098 -2200.3467)">
												<stop  offset="0.0319" style="stop-color:#0F003F"/>
												<stop  offset="1" style="stop-color:#003883"/>
											</linearGradient>
											<path class="st11" d="M386.45,237.26l5.82-5.83c2.24-2.24,5.82-2.33,8.19-0.31l14.33-17.3
												c-0.63-0.94-0.99-2.07-0.93-3.29c0.14-3.02,2.7-5.35,5.72-5.21c3.02,0.14,5.35,2.7,5.21,5.72
												c-0.14,3.02-2.7,5.35-5.72,5.21c-0.67-0.03-1.3-0.2-1.89-0.45l-14.49,17.48l0.18,0.18c2.36,2.35,2.36,6.21,0.01,8.57
												l-4.64,4.64l-1.15,1.16l-0.03,0.03l-0.04-0.04c-2.4-0.33-7.63-1.5-11.21-9.92"/>
											
												<linearGradient id="SVGID_10_" gradientUnits="userSpaceOnUse" x1="-12947.2705" y1="2229.7166" x2="-12909.5645" y2="2229.7166" gradientTransform="matrix(1 -6.738657e-03 6.738657e-03 1 13104.2754 -2100.6165)">
												<stop  offset="0.0319" style="stop-color:#0F003F"/>
												<stop  offset="1" style="stop-color:#003883"/>
											</linearGradient>
											<path class="st12" d="M209.5,227.72l-5.59-6.06c-2.15-2.33-5.72-2.56-8.17-0.63l-13.64-17.85
												c0.67-0.91,1.07-2.03,1.06-3.25c-0.02-3.02-2.49-5.46-5.51-5.44c-3.02,0.02-5.46,2.49-5.44,5.51
												c0.02,3.02,2.49,5.46,5.51,5.44c0.67,0,1.31-0.15,1.9-0.37l13.79,18.04l-0.18,0.17c-2.45,2.26-2.6,6.11-0.35,8.56
												l4.45,4.82l1.11,1.2l0.03,0.03l0.04-0.04c2.41-0.23,7.68-1.2,11.59-9.48"/>
										</g>
									</g>
								</g>
								<g class="st1">
									
										<linearGradient id="SVGID_11_" gradientUnits="userSpaceOnUse" x1="-2122.9028" y1="1285.443" x2="-2117.2937" y2="1285.443" gradientTransform="matrix(-0.5568 0.7464 0.7334 0.6478 -1928.4874 977.8796)">
										<stop  offset="0" style="stop-color:#000000"/>
										<stop  offset="1" style="stop-color:#BA9B68"/>
									</linearGradient>
									<path class="st13" d="M196.53,229.45c-0.74-0.42-1.01-0.94-1.45-2.09c-0.49-1.59-0.3-2.43-0.73-2.89
										c-0.26-0.32-0.57-0.3-0.66-0.29c-1.19,0.04-2.28,4.36-0.58,6.05c0.85,1.15,2.82,1.47,3.72,0.84
										c0.14-0.09,0.45-0.32,0.57-0.5C197.83,229.87,197.09,229.77,196.53,229.45z"/>
								</g>
							</g>
							<g>
								<g>
									
										<linearGradient id="SVGID_12_" gradientUnits="userSpaceOnUse" x1="7535.6357" y1="2833.4211" x2="7679.0366" y2="2833.4211" gradientTransform="matrix(-0.998 -0.0638 -0.0638 0.998 8086.458 -2054.7107)">
										<stop  offset="0" style="stop-color:#EEFFD4;stop-opacity:0.7"/>
										<stop  offset="0.5903" style="stop-color:#FFFFFF"/>
									</linearGradient>
									<path class="st14" d="M252.68,303.45c39.75-1.56,78.09,1.25,119.07,8.59c7.69,1.38,13.63-2.93,13.01-9.8
										c-0.39-4.63-0.8-9.26-1.23-13.89c-0.67-6.88-7.11-13.65-14.11-14.82c-37.68-6.33-72.57-7.93-109.07-5
										c-6.78,0.56-13.68,6.18-15.26,12.25c-1.04,4.11-2.08,8.22-3.14,12.32C240.36,299.16,245.21,303.72,252.68,303.45z"/>
								</g>
								<g>
									<g>
										
											<linearGradient id="SVGID_13_" gradientUnits="userSpaceOnUse" x1="7565.314" y1="2841.4302" x2="7585.0884" y2="2841.4302" gradientTransform="matrix(-0.9989 -0.0462 -0.0462 0.9989 8049.0098 -2200.3467)">
											<stop  offset="0.0319" style="stop-color:#0F003F"/>
											<stop  offset="1" style="stop-color:#003883"/>
										</linearGradient>
										<circle class="st15" cx="350.69" cy="288.28" r="9.89"/>
										
											<linearGradient id="SVGID_14_" gradientUnits="userSpaceOnUse" x1="7637.1533" y1="2841.4302" x2="7656.9282" y2="2841.4302" gradientTransform="matrix(-0.9989 -0.0462 -0.0462 0.9989 8049.0098 -2200.3467)">
											<stop  offset="0.0319" style="stop-color:#0F003F"/>
											<stop  offset="1" style="stop-color:#003883"/>
										</linearGradient>
										<circle class="st16" cx="278.93" cy="284.96" r="9.89"/>
									</g>
									<g class="st1">
										
											<linearGradient id="SVGID_15_" gradientUnits="userSpaceOnUse" x1="-3432.3621" y1="407.9564" x2="-3425.1611" y2="407.9564" gradientTransform="matrix(-0.6456 0.86 0.6727 1.1871 -2213.3809 2751.113)">
											<stop  offset="0" style="stop-color:#000000"/>
											<stop  offset="1" style="stop-color:#BA9B68"/>
										</linearGradient>
										<path class="st17" d="M276.93,288.28c-0.79-0.91-1.05-2.14-1.25-3.33c-0.17-1.15-0.14-2.26-0.52-3.48
											c-0.23-0.83-0.86-1.91-1.37-3.43c-0.03-0.09-0.07-0.19-0.11-0.25c-0.03-0.05-0.06-0.04-0.09-0.03
											c-0.99,0.36-1.8,2.85-2.12,4.88c-0.95,3.41,0.26,9.66,5.05,9.89c0.39,0.03,1.21-0.13,2.05-0.73
											c0.49-0.35,0.68-0.63,0.79-0.82C280,289.82,277.42,289.1,276.93,288.28z"/>
									</g>
									<g class="st1">
										
											<linearGradient id="SVGID_16_" gradientUnits="userSpaceOnUse" x1="-3924.7991" y1="-4216.647" x2="-3916.6125" y2="-4216.647" gradientTransform="matrix(-1.3406 -0.1472 8.240253e-05 -1.44 -4906.9849 -6358.1284)">
											<stop  offset="0" style="stop-color:#000000"/>
											<stop  offset="1" style="stop-color:#BA9B68"/>
										</linearGradient>
										<path class="st18" d="M345.7,288.82c0.65,1.48,0.7,2.45,1.85,3.57c1.51,1.43,4.19,1.37,5.47,1.69
											c0.85,0.25,1.42,0.68,0.75,1.81c-0.04,0.07-0.1,0.15-0.21,0.23c-0.1,0.07-0.2,0.11-0.29,0.15c-3.7,1.4-5.54,0.16-7.03-1.1
											c-2.61-2.13-3.68-5.85-2.89-9.47c0.06-0.33,0.25-0.72,0.57-0.65c0.19,0.04,0.32,0.23,0.42,0.4
											C345,286.57,345.27,287.75,345.7,288.82z"/>
									</g>
								</g>
							</g>
						</g>
					</g>
					<g>
						
							<linearGradient id="SVGID_17_" gradientUnits="userSpaceOnUse" x1="-15658.2959" y1="-4970.9985" x2="-15526.2148" y2="-5106.501" gradientTransform="matrix(0.4124 -0.5895 0.8797 0.6153 11218.0059 -5794.2207)">
							<stop  offset="0" style="stop-color:#E9003A"/>
							<stop  offset="1" style="stop-color:#E6A13B"/>
						</linearGradient>
						<path class="st19" d="M398.02,408.51c-22.48-26.73-38.94-42.73-39.31-51.19c-0.04-0.97-0.26-5.94,3.65-8.88
							c3.12-2.35,7.6-2.46,10.03-2.13c14.76,1.98,42.3,41.73,49.54,61.15c1.58,4.23,5.81,15.6,1.03,17.3
							c-1.96,0.7-4.77-0.46-6.77-1.3C407.35,419.72,401.41,412.54,398.02,408.51z"/>
						<g>
							<g>
								
									<linearGradient id="SVGID_18_" gradientUnits="userSpaceOnUse" x1="8171.335" y1="2608.5625" x2="8331.8066" y2="2756.9683" gradientTransform="matrix(-0.9509 -0.0175 -0.021 0.9997 8192.8311 -2115.437)">
									<stop  offset="0" style="stop-color:#E7903A"/>
									<stop  offset="0.7098" style="stop-color:#E93F33"/>
								</linearGradient>
								<path class="st20" d="M286.62,528.72C286.62,528.72,286.62,528.72,286.62,528.72c63.59,3.39,111.48-51.62,107.06-100.27
									c-1.03-16.13-2.11-32.27-3.23-48.41c-1.8-22.72-22.31-40.57-45.6-40.67c-32.46-0.14-64.77-1.33-96.88-3.57
									c-23.04-1.58-44.57,14.45-48.35,36.55c-2.53,15.73-5.11,31.46-7.72,47.18C182.82,466.65,223.05,525.34,286.62,528.72z"/>
							</g>
							<g class="st1">
								
									<linearGradient id="SVGID_19_" gradientUnits="userSpaceOnUse" x1="7316.5059" y1="2380.8901" x2="7238.2021" y2="2306.8323" gradientTransform="matrix(-1.0291 8.578602e-03 -0.0517 1.0308 7965.2764 -1997.3541)">
									<stop  offset="0.0606" style="stop-color:#BA9B68"/>
									<stop  offset="0.0771" style="stop-color:#B39564"/>
									<stop  offset="0.1965" style="stop-color:#846E4A"/>
									<stop  offset="0.3197" style="stop-color:#5B4C33"/>
									<stop  offset="0.4451" style="stop-color:#3A3121"/>
									<stop  offset="0.5734" style="stop-color:#211B12"/>
									<stop  offset="0.7056" style="stop-color:#0E0C08"/>
									<stop  offset="0.8443" style="stop-color:#040302"/>
									<stop  offset="1" style="stop-color:#000000"/>
								</linearGradient>
								<path class="st21" d="M334.88,497.4c9.29-6.62,15.31-12.3,25.23-24.6c12.53-16.34,14.72-26.47,18.66-28.14
									c2.44-1.16,3.71,1.9,4.01,2.6c5.39,10.64-13.43,40.42-34.36,53.77c-11.9,8.61-28.81,15.28-31.66,13.47
									c-0.44-0.27-1.17-1.13-0.5-2.33C318.93,507.4,327.75,502.41,334.88,497.4z"/>
							</g>
						</g>
					</g>
				</g>
				<g class="st1">
					<path class="st6" d="M356.21,437.87c-4.52,2.92-9.08,5.86-13.66,8.63c-4.5-3.01-9.01-6.09-13.52-9.06
						c-0.09-5.47-0.17-10.94-0.26-16.4c4.4-2.8,8.8-5.7,13.2-8.55c4.76,2.97,9.49,6.14,14.19,9.28c0.05-8.29,0.1-16.58,0.15-24.86
						c-4.53-2.79-9.11-5.4-13.7-7.68c-0.79-0.46-1.78-0.4-2.58,0.14c-9.96,6.77-19.97,14.52-29.79,21.43c0,0.48,0,0.97,0,1.45
						c0.03,12.07,0.06,24.14,0.09,36.23c0.04,0.03,0.07,0.05,0.11,0.08c9.6,6.74,19.4,14.23,29.14,20.8c0.42,0.3,0.88,0.47,1.35,0.5
						c0.43,0.03,0.87-0.06,1.26-0.28c4.75-3.13,9.48-6.62,14.16-10.26C356.32,452.18,356.26,445.02,356.21,437.87z M341.14,391.42
						c0.11-0.07,0.25-0.08,0.36-0.02c4.21,2.06,8.41,4.39,12.58,6.88c-0.04,6.39-0.08,12.78-0.12,19.17
						c-3.96-2.66-7.95-5.3-11.96-7.79c-4.93,3.21-9.88,6.52-14.82,9.7c-4.74-3.07-9.47-5.83-14.16-8.09
						C322.3,404.82,331.75,397.69,341.14,391.42z M312.48,413.57c4.53,2.24,9.1,4.95,13.68,7.94c0.13,5.4,0.26,10.8,0.39,16.22
						c-4.69,2.82-9.36,5.38-13.99,7.47C312.53,434.65,312.51,424.1,312.48,413.57z M341.09,467.4c-0.1,0.05-0.23,0.03-0.37-0.07
						c-9.39-6.22-18.83-13.28-28.12-19.67c5.13-2.2,10.3-5,15.49-8.12c4.81,3.21,9.63,6.55,14.43,9.78
						c3.84-2.31,7.68-4.75,11.48-7.22c0.04,5.34,0.08,10.69,0.13,16.03C349.81,461.42,345.46,464.56,341.09,467.4z"/>
				</g>
			</g>
			
				<linearGradient id="SVGID_20_" gradientUnits="userSpaceOnUse" x1="7741.6626" y1="2865.7385" x2="7723.1387" y2="2925.9417" gradientTransform="matrix(-0.9998 -0.0197 -0.0197 0.9998 8074.4585 -2120.9084)">
				<stop  offset="0" style="stop-color:#FFF47F;stop-opacity:0.9"/>
				<stop  offset="0.1645" style="stop-color:#FFF17E;stop-opacity:0.9"/>
				<stop  offset="0.3017" style="stop-color:#FFE679;stop-opacity:0.9"/>
				<stop  offset="0.4291" style="stop-color:#FFD572;stop-opacity:0.9"/>
				<stop  offset="0.5506" style="stop-color:#FFBD68;stop-opacity:0.9"/>
				<stop  offset="0.668" style="stop-color:#FF9D5B;stop-opacity:0.9"/>
				<stop  offset="0.7822" style="stop-color:#FF764B;stop-opacity:0.9"/>
				<stop  offset="0.8917" style="stop-color:#FF4938;stop-opacity:0.9"/>
				<stop  offset="1" style="stop-color:#FF1522;stop-opacity:0.9"/>
			</linearGradient>
			<path class="st22" d="M358.68,620.51c-0.33,16.51-33.29,29.25-73.62,28.46c-40.33-0.8-72.76-14.83-72.44-31.34
				c0.33-16.51,33.29-29.25,73.62-28.46S359,604,358.68,620.51z"/>
		</g>
		<g>
			<g>
				<path class="st23" d="M253.7,404.27l-7.44-7.75c-1.46-1.52-1.43-3.99,0.07-5.53l60.83-62.64l12.71,13.24l-60.83,62.64
					C257.54,405.77,255.15,405.79,253.7,404.27z"/>
				
					<ellipse transform="matrix(0.2494 -0.9684 0.9684 0.2494 -19.9776 565.1808)" class="st24" cx="354.61" cy="295.48" rx="55.01" ry="52.85"/>
				
					<ellipse transform="matrix(0.2494 -0.9684 0.9684 0.2494 -20.2003 565.5115)" class="st25" cx="354.71" cy="295.79" rx="53.28" ry="51.19"/>
				<g class="st26">
					<path class="st27" d="M321.39,318.29c7.56-11.88,22.39-25.73,36.58-30.32c14.79-5.11,25.87-9.83,13.27-22.31
						c-22.76-16.71-11.3-15.58,4.91-9.5c18.86,8.71,26.03,18.84,27.52,24.83c1.37,6.37-2.93,8.6-9.72,10.41
						c-6.57,2.77-11.66,25.13-22.03,23.2c-4.86-0.58-13.18-3.32-22.11-3.24c-8.85-0.23-18.3,2.36-23.54,5.23
						C324.59,317.43,322.75,318.3,321.39,318.29z"/>
				</g>
			</g>
			<g>
				
					<linearGradient id="SVGID_21_" gradientUnits="userSpaceOnUse" x1="7938.8887" y1="-7653.2188" x2="7833.7651" y2="-7807.4912" gradientTransform="matrix(-0.22 0.9755 0.9755 0.22 9473.6602 -5664.2305)">
					<stop  offset="0.2438" style="stop-color:#E93F33"/>
					<stop  offset="1" style="stop-color:#E79F3B"/>
				</linearGradient>
				<path class="st28" d="M258.91,372.4c-23.59-24.03-26-37.03-36.42-37.84c-1.2-0.09-7.31-0.57-12.7,3.22
					c-4.3,3.02-6.4,7.52-7.06,9.99c-3.99,14.96,33.68,44.77,54.81,53.06c4.61,1.81,16.96,6.66,21.19,1.94
					c1.73-1.93,1.51-4.82,1.33-6.88C279.25,386.78,262.46,376.03,258.91,372.4z"/>
				
					<linearGradient id="SVGID_22_" gradientUnits="userSpaceOnUse" x1="7942.6494" y1="-7639.9321" x2="7965.8213" y2="-7639.9321" gradientTransform="matrix(-0.2259 0.9742 0.9742 0.2259 9455.4346 -5662.4058)">
					<stop  offset="0" style="stop-color:#000000"/>
					<stop  offset="1" style="stop-color:#BA9B68"/>
				</linearGradient>
				<path class="st29" d="M222.14,365.96c-2.54-2.59-4.04-4.89-7.04-9.48c-3.93-6.02-4.92-9.95-6.89-9.79
					c-1.28,0.1-2.1,1.87-2.28,2.27c-2.81,6.06,4.66,15.59,10.35,20.44c3.48,2.97,8.01,5.61,9.31,4.52c0.2-0.17,0.62-0.68,0.64-1.31
					C226.26,370.11,224.07,367.93,222.14,365.96z"/>
				
					<linearGradient id="SVGID_23_" gradientUnits="userSpaceOnUse" x1="7938.8887" y1="-7653.2188" x2="7833.7651" y2="-7807.4912" gradientTransform="matrix(-0.22 0.9755 0.9755 0.22 9473.6602 -5664.2305)">
					<stop  offset="0" style="stop-color:#000000;stop-opacity:0.4"/>
					<stop  offset="1" style="stop-color:#6AFFF0"/>
				</linearGradient>
				<path class="st30" d="M258.91,372.4c-23.59-24.03-26-37.03-36.42-37.84c-1.2-0.09-7.31-0.57-12.7,3.22
					c-4.3,3.02-6.4,7.52-7.06,9.99c-3.99,14.96,33.68,44.77,54.81,53.06c4.61,1.81,16.96,6.66,21.19,1.94
					c1.73-1.93,1.51-4.82,1.33-6.88C279.25,386.78,262.46,376.03,258.91,372.4z"/>
			</g>
		</g>
	</g>
</g>
<g id="Calque_3">
</g>
</svg>
