<?xml version="1.0" encoding="utf-8"?>
<!-- Generator: Adobe Illustrator 25.2.0, SVG Export Plug-In . SVG Version: 6.00 Build 0)  -->
<svg version="1.1" xmlns="http://www.w3.org/2000/svg" xmlns:xlink="http://www.w3.org/1999/xlink" x="0px" y="0px"
	 viewBox="0 0 353.88 581.41" style="enable-background:new 0 0 353.88 581.41;" xml:space="preserve">
<style type="text/css">
	.st0{opacity:0.5;}
	.st1{fill:url(#SVGID_1_);}
	.st2{fill:url(#SVGID_2_);}
	.st3{fill:url(#SVGID_3_);}
	.st4{fill:url(#SVGID_4_);}
	.st5{fill:#FFFFFF;}
	.st6{fill:url(#SVGID_5_);}
	.st7{fill:url(#SVGID_6_);}
	.st8{fill:url(#SVGID_7_);}
	.st9{opacity:0.5;fill:url(#SVGID_8_);}
	.st10{fill:url(#SVGID_9_);}
	.st11{fill:url(#SVGID_10_);}
	.st12{fill:url(#SVGID_11_);}
	.st13{fill:url(#SVGID_12_);}
	.st14{fill:url(#SVGID_13_);}
	.st15{fill:url(#SVGID_14_);}
	.st16{fill:url(#SVGID_15_);}
	.st17{fill:url(#SVGID_16_);}
	.st18{fill:url(#SVGID_17_);}
	.st19{fill:url(#SVGID_18_);}
	.st20{fill:url(#SVGID_19_);}
	.st21{fill:url(#SVGID_20_);}
	.st22{opacity:0.5;fill:url(#SVGID_21_);}
	.st23{fill:#F4F7FA;}
	.st24{fill:none;stroke:#F4F7FA;stroke-width:14;stroke-miterlimit:10;}
	.st25{opacity:0.78;fill:#A6CCF4;}
	.st26{opacity:0.14;}
	.st27{fill:#0459A5;}
	.st28{fill:url(#SVGID_22_);}
	.st29{opacity:0.5;fill:url(#SVGID_23_);}
	.st30{opacity:0.5;fill:url(#SVGID_24_);}
</style>
<g id="Logo">
</g>
<g id="Mascot">
	<g class="st0">
		
			<linearGradient id="SVGID_1_" gradientUnits="userSpaceOnUse" x1="9300.8203" y1="-7141.3252" x2="9307.0488" y2="-7141.3252" gradientTransform="matrix(-0.6226 0.8768 0.7039 1.1689 10952.4834 338.2355)">
			<stop  offset="0" style="stop-color:#000000"/>
			<stop  offset="1" style="stop-color:#BA9B68"/>
		</linearGradient>
		<path class="st1" d="M135.96,150.19c-0.87-0.61-1.93-1-2.25-2.14c-0.34-1.5,0.46-2.62,0-3.67c-0.25-0.74-0.84-1.71-1.32-3.03
			c-0.03-0.08-0.06-0.17-0.1-0.21c-0.03-0.04-0.06-0.03-0.08-0.01c-0.92,0.5-1.65,2.8-1.82,4.66c-0.45,2.99,0.03,6.77,4.12,7.36
			c0.35,0.04,1.08-0.08,1.79-0.59c0.42-0.29,0.57-0.53,0.65-0.69C137.45,150.79,136.55,150.66,135.96,150.19z"/>
	</g>
	<g class="st0">
		
			<linearGradient id="SVGID_2_" gradientUnits="userSpaceOnUse" x1="9301.041" y1="-7141.1416" x2="9307.2686" y2="-7141.1416" gradientTransform="matrix(-0.6226 0.8768 0.7039 1.1689 10952.4834 338.2355)">
			<stop  offset="0" style="stop-color:#000000"/>
			<stop  offset="1" style="stop-color:#BA9B68"/>
		</linearGradient>
		<path class="st2" d="M135.95,150.6c-0.87-0.61-1.93-1-2.25-2.14c-0.34-1.5,0.46-2.62,0-3.67c-0.25-0.74-0.85-1.71-1.32-3.03
			c-0.03-0.08-0.06-0.17-0.1-0.21c-0.03-0.04-0.06-0.03-0.08-0.01c-0.92,0.5-1.65,2.8-1.82,4.66c-0.45,2.99,0.02,6.77,4.12,7.36
			c0.36,0.04,1.08-0.08,1.79-0.59c0.42-0.3,0.57-0.53,0.65-0.69C137.44,151.2,136.54,151.07,135.95,150.6z"/>
	</g>
	<g class="st0">
		
			<linearGradient id="SVGID_3_" gradientUnits="userSpaceOnUse" x1="9301.5762" y1="-7140.5151" x2="9307.8037" y2="-7140.5151" gradientTransform="matrix(-0.6226 0.8768 0.7039 1.1689 10952.4834 338.2355)">
			<stop  offset="0" style="stop-color:#000000"/>
			<stop  offset="1" style="stop-color:#BA9B68"/>
		</linearGradient>
		<path class="st3" d="M136.06,151.8c-0.87-0.62-1.93-1.01-2.25-2.14c-0.34-1.5,0.46-2.62,0-3.67c-0.25-0.74-0.84-1.71-1.32-3.03
			c-0.03-0.08-0.06-0.17-0.1-0.21c-0.03-0.04-0.06-0.03-0.08-0.02c-0.92,0.5-1.65,2.8-1.82,4.66c-0.45,2.99,0.02,6.77,4.12,7.36
			c0.36,0.04,1.08-0.08,1.79-0.59c0.42-0.3,0.57-0.53,0.65-0.69C137.55,152.4,136.65,152.27,136.06,151.8z"/>
	</g>
	<g class="st0">
		
			<linearGradient id="SVGID_4_" gradientUnits="userSpaceOnUse" x1="9301.7949" y1="-7140.3315" x2="9308.0244" y2="-7140.3315" gradientTransform="matrix(-0.6226 0.8768 0.7039 1.1689 10952.4834 338.2355)">
			<stop  offset="0" style="stop-color:#000000"/>
			<stop  offset="1" style="stop-color:#BA9B68"/>
		</linearGradient>
		<path class="st4" d="M136.05,152.2c-0.87-0.62-1.93-1-2.25-2.14c-0.34-1.5,0.46-2.62,0-3.67c-0.25-0.74-0.84-1.71-1.32-3.03
			c-0.03-0.08-0.06-0.17-0.1-0.21c-0.03-0.04-0.06-0.03-0.08-0.01c-0.92,0.5-1.65,2.8-1.82,4.66c-0.45,2.99,0.03,6.78,4.12,7.36
			c0.36,0.04,1.08-0.08,1.79-0.59c0.42-0.3,0.57-0.52,0.65-0.69C137.54,152.81,136.64,152.68,136.05,152.2z"/>
	</g>
	<path class="st5" d="M220.88,237.84"/>
	<path class="st5" d="M182.18,318.83V319l0.14-0.09L182.18,318.83z"/>
	<g>
		<g>
			<g>
				<g>
					<g>
						
							<linearGradient id="SVGID_5_" gradientUnits="userSpaceOnUse" x1="9633.9385" y1="3398.6614" x2="9774.0576" y2="3398.6614" gradientTransform="matrix(-0.8615 -0.017 -0.015 0.7586 8590.0439 -2204.1272)">
							<stop  offset="0" style="stop-color:#E9003A"/>
							<stop  offset="1" style="stop-color:#E6A13B"/>
						</linearGradient>
						<path class="st6" d="M123.74,198.9l110.46,3.12c3.1,0.09,5.42,2.9,4.91,5.96l-1.2,7.2c-0.43,2.55-2.69,4.39-5.28,4.27
							l-108.42-4.81c-2.44-0.11-4.47-1.93-4.84-4.35l-0.84-5.51C118.05,201.63,120.55,198.81,123.74,198.9z"/>
						<g>
							<g>
								<g>
									<g>
										
											<linearGradient id="SVGID_6_" gradientUnits="userSpaceOnUse" x1="8019.3237" y1="2311.384" x2="8033.2612" y2="2496.2029" gradientTransform="matrix(-0.9947 -0.0195 -0.0199 0.9998 8207.2168 -2119.1533)">
											<stop  offset="0.1346" style="stop-color:#F31C1F"/>
											<stop  offset="0.2024" style="stop-color:#F03B26"/>
											<stop  offset="0.2852" style="stop-color:#ED5A2C"/>
											<stop  offset="0.3763" style="stop-color:#EB7332"/>
											<stop  offset="0.4773" style="stop-color:#E98736"/>
											<stop  offset="0.5934" style="stop-color:#E89539"/>
											<stop  offset="0.7381" style="stop-color:#E79D3A"/>
											<stop  offset="1" style="stop-color:#E79F3B"/>
										</linearGradient>
										<path class="st7" d="M81.71,195.18c58.26,3.97,116.92,8.17,175.98,12.61c15.83,1.22,28.03-10.61,27.17-26.48
											c-0.84-16.97-1.72-33.95-2.62-50.95c-0.91-15.9-13.31-29.1-27.61-29.42c-53.86-1.38-107.32-2.52-160.39-3.44
											c-14.09-0.2-27.27,11.06-29.5,25.1c-2.32,15.1-4.68,30.19-7.07,45.25C55.36,181.87,66.09,194.08,81.71,195.18z"/>
									</g>
									<g>
										<g>
											
												<linearGradient id="SVGID_7_" gradientUnits="userSpaceOnUse" x1="8568.042" y1="2719.3081" x2="8814.2178" y2="2719.3081" gradientTransform="matrix(-0.9295 -0.043 -0.0462 0.9989 8381.5439 -2188.1531)">
												<stop  offset="0.2438" style="stop-color:#E93F33"/>
												<stop  offset="1" style="stop-color:#E79F3B"/>
											</linearGradient>
											<path class="st8" d="M86.59,199.52c58.66,3.99,117.72,8.21,177.17,12.67c15.83,1.22,28.02-10.62,27.16-26.48
												c-0.85-16.96-1.73-33.95-2.65-50.95c-0.92-15.9-13.33-29.1-27.63-29.43c-54.23-1.4-108.06-2.56-161.49-3.48
												c-14.09-0.2-27.27,11.05-29.52,25.1c-2.33,15.1-4.7,30.19-7.09,45.25C60.25,186.21,70.98,198.42,86.59,199.52z"/>
										</g>
										
											<linearGradient id="SVGID_8_" gradientUnits="userSpaceOnUse" x1="8030.9722" y1="2422.3884" x2="8066.228" y2="2381.0305" gradientTransform="matrix(-0.9998 -0.0197 -0.0197 0.9998 8195.0605 -2119.7188)">
											<stop  offset="0" style="stop-color:#000000;stop-opacity:0.4"/>
											<stop  offset="1" style="stop-color:#BA9B68"/>
										</linearGradient>
										<path class="st9" d="M90.17,128.2c3.37-3.17,6.35-5.02,12.31-8.73c7.79-4.85,16.72-5.98,16.58-8.5
											c-0.09-1.64-2.33-2.73-2.83-2.98c-7.66-3.75-23.91,5.48-30.27,12.62c-3.89,4.37-7.38,10.07-6.04,11.76
											c0.21,0.27,0.85,0.82,1.65,0.85C84.76,133.35,87.61,130.61,90.17,128.2z"/>
										<g>
											
												<linearGradient id="SVGID_9_" gradientUnits="userSpaceOnUse" x1="7765.9233" y1="2661.8064" x2="7803.6299" y2="2661.8064" gradientTransform="matrix(-0.9989 -0.0462 -0.0462 0.9989 8186.4077 -2197.1729)">
												<stop  offset="0.0319" style="stop-color:#0F003F"/>
												<stop  offset="1" style="stop-color:#003883"/>
											</linearGradient>
											<path class="st10" d="M268.26,113.16l5.82-5.83c2.24-2.24,5.82-2.33,8.19-0.31l14.33-17.3
												c-0.63-0.94-0.99-2.07-0.93-3.29c0.14-3.02,2.7-5.35,5.72-5.21c3.02,0.14,5.35,2.7,5.21,5.72
												c-0.14,3.02-2.7,5.35-5.72,5.21c-0.67-0.03-1.3-0.2-1.89-0.45l-14.49,17.48l0.18,0.18c2.36,2.35,2.36,6.21,0.01,8.57
												l-4.64,4.64l-1.15,1.16l-0.03,0.03l-0.04-0.04c-2.4-0.33-7.63-1.5-11.21-9.92"/>
											
												<linearGradient id="SVGID_10_" gradientUnits="userSpaceOnUse" x1="-13060.3271" y1="2104.478" x2="-13022.6211" y2="2104.478" gradientTransform="matrix(1 -6.738657e-03 6.738657e-03 1 13099.9854 -2100.2378)">
												<stop  offset="0.0319" style="stop-color:#0F003F"/>
												<stop  offset="1" style="stop-color:#003883"/>
											</linearGradient>
											<path class="st11" d="M91.31,103.62l-5.59-6.06c-2.15-2.33-5.72-2.56-8.17-0.63L63.91,79.08
												c0.67-0.91,1.07-2.03,1.06-3.25c-0.02-3.02-2.49-5.46-5.51-5.44c-3.02,0.02-5.46,2.49-5.44,5.51
												c0.02,3.02,2.49,5.46,5.51,5.44c0.67,0,1.31-0.15,1.9-0.37l13.79,18.04l-0.18,0.17c-2.45,2.26-2.6,6.11-0.35,8.56
												l4.45,4.82l1.11,1.2l0.03,0.03l0.04-0.04c2.41-0.23,7.68-1.2,11.59-9.48"/>
										</g>
									</g>
								</g>
								<g class="st0">
									
										<linearGradient id="SVGID_11_" gradientUnits="userSpaceOnUse" x1="-2560.5188" y1="1314.1245" x2="-2554.9094" y2="1314.1245" gradientTransform="matrix(-0.5568 0.7464 0.7334 0.6478 -2311.3848 1161.8241)">
										<stop  offset="0" style="stop-color:#000000"/>
										<stop  offset="1" style="stop-color:#BA9B68"/>
									</linearGradient>
									<path class="st12" d="M78.34,105.35c-0.74-0.42-1.01-0.94-1.45-2.09c-0.49-1.59-0.3-2.43-0.73-2.89
										c-0.26-0.32-0.57-0.3-0.66-0.29c-1.19,0.04-2.28,4.36-0.58,6.05c0.85,1.15,2.82,1.47,3.72,0.84
										c0.14-0.09,0.45-0.32,0.57-0.5C79.64,105.77,78.9,105.67,78.34,105.35z"/>
								</g>
							</g>
							<g>
								<g>
									
										<linearGradient id="SVGID_12_" gradientUnits="userSpaceOnUse" x1="7810.0361" y1="2721.8533" x2="7953.4365" y2="2721.8533" gradientTransform="matrix(-0.998 -0.0638 -0.0638 0.998 8235 -2049.9709)">
										<stop  offset="0" style="stop-color:#EEFFD4;stop-opacity:0.7"/>
										<stop  offset="0.5903" style="stop-color:#FFFFFF"/>
									</linearGradient>
									<path class="st13" d="M134.49,179.35c39.75-1.56,78.09,1.25,119.07,8.59c7.69,1.38,13.63-2.93,13.01-9.8
										c-0.39-4.63-0.8-9.26-1.23-13.89c-0.67-6.88-7.11-13.65-14.11-14.82c-37.68-6.33-72.57-7.93-109.07-5
										c-6.78,0.56-13.68,6.18-15.26,12.25c-1.04,4.11-2.08,8.22-3.14,12.32C122.17,175.06,127.02,179.62,134.49,179.35z"/>
								</g>
								<g>
									<g>
										
											<linearGradient id="SVGID_13_" gradientUnits="userSpaceOnUse" x1="7826.5029" y1="2726.0979" x2="7846.2778" y2="2726.0979" gradientTransform="matrix(-0.9989 -0.0462 -0.0462 0.9989 8186.4077 -2197.1729)">
											<stop  offset="0.0319" style="stop-color:#0F003F"/>
											<stop  offset="1" style="stop-color:#003883"/>
										</linearGradient>
										<circle class="st14" cx="232.5" cy="164.19" r="9.89"/>
										
											<linearGradient id="SVGID_14_" gradientUnits="userSpaceOnUse" x1="7898.3428" y1="2726.0979" x2="7918.1177" y2="2726.0979" gradientTransform="matrix(-0.9989 -0.0462 -0.0462 0.9989 8186.4077 -2197.1729)">
											<stop  offset="0.0319" style="stop-color:#0F003F"/>
											<stop  offset="1" style="stop-color:#003883"/>
										</linearGradient>
										<circle class="st15" cx="160.74" cy="160.87" r="9.89"/>
									</g>
									<g class="st0">
										
											<linearGradient id="SVGID_15_" gradientUnits="userSpaceOnUse" x1="-3606.9292" y1="569.3817" x2="-3599.7283" y2="569.3817" gradientTransform="matrix(-0.6456 0.86 0.6727 1.1871 -2552.8596 2585.5203)">
											<stop  offset="0" style="stop-color:#000000"/>
											<stop  offset="1" style="stop-color:#BA9B68"/>
										</linearGradient>
										<path class="st16" d="M158.74,164.19c-0.79-0.91-1.05-2.14-1.25-3.33c-0.17-1.15-0.14-2.26-0.52-3.48
											c-0.23-0.83-0.86-1.91-1.37-3.43c-0.03-0.09-0.07-0.19-0.11-0.25c-0.03-0.05-0.06-0.04-0.09-0.03
											c-0.99,0.36-1.8,2.85-2.12,4.88c-0.95,3.41,0.26,9.66,5.05,9.89c0.39,0.03,1.21-0.13,2.05-0.73
											c0.49-0.35,0.68-0.63,0.79-0.82C161.81,165.72,159.23,165,158.74,164.19z"/>
									</g>
									<g class="st0">
										
											<linearGradient id="SVGID_16_" gradientUnits="userSpaceOnUse" x1="-3742.2766" y1="-3064.5723" x2="-3734.0901" y2="-3064.5723" gradientTransform="matrix(-1.3406 -0.1472 8.240253e-05 -1.44 -4780.5864 -4796.3652)">
											<stop  offset="0" style="stop-color:#000000"/>
											<stop  offset="1" style="stop-color:#BA9B68"/>
										</linearGradient>
										<path class="st17" d="M227.51,164.73c0.65,1.48,0.7,2.45,1.85,3.57c1.51,1.43,4.19,1.37,5.47,1.69
											c0.85,0.25,1.42,0.68,0.75,1.81c-0.04,0.07-0.1,0.15-0.21,0.23c-0.1,0.07-0.2,0.11-0.29,0.15c-3.7,1.4-5.54,0.16-7.03-1.1
											c-2.61-2.13-3.68-5.85-2.89-9.47c0.06-0.33,0.25-0.72,0.57-0.65c0.19,0.04,0.32,0.23,0.42,0.4
											C226.82,162.47,227.08,163.65,227.51,164.73z"/>
									</g>
								</g>
							</g>
						</g>
					</g>
					<g>
						
							<linearGradient id="SVGID_17_" gradientUnits="userSpaceOnUse" x1="-14874.8438" y1="-4871.8979" x2="-14742.7627" y2="-5007.4004" gradientTransform="matrix(0.4124 -0.5895 0.8797 0.6153 10689.5781 -5517.4189)">
							<stop  offset="0" style="stop-color:#E9003A"/>
							<stop  offset="1" style="stop-color:#E6A13B"/>
						</linearGradient>
						<path class="st18" d="M279.83,284.42c-22.48-26.73-38.94-42.73-39.31-51.19c-0.04-0.97-0.26-5.94,3.65-8.88
							c3.12-2.35,7.6-2.46,10.03-2.13c14.76,1.98,42.3,41.73,49.54,61.15c1.58,4.23,5.81,15.6,1.03,17.3
							c-1.96,0.7-4.77-0.46-6.77-1.3C289.16,295.62,283.22,288.45,279.83,284.42z"/>
						<g>
							<g>
								
									<linearGradient id="SVGID_18_" gradientUnits="userSpaceOnUse" x1="8423.2139" y1="2487.7297" x2="8583.6846" y2="2636.1355" gradientTransform="matrix(-0.9509 -0.0175 -0.021 0.9997 8311.6152 -2114.3313)">
									<stop  offset="0" style="stop-color:#E7903A"/>
									<stop  offset="0.7098" style="stop-color:#E93F33"/>
								</linearGradient>
								<path class="st19" d="M168.43,404.63C168.43,404.63,168.43,404.63,168.43,404.63c63.59,3.39,111.48-51.62,107.06-100.27
									c-1.03-16.13-2.11-32.27-3.23-48.41c-1.8-22.72-22.31-40.57-45.6-40.67c-32.46-0.14-64.77-1.33-96.88-3.57
									c-23.04-1.58-44.57,14.45-48.35,36.55c-2.53,15.73-5.11,31.46-7.72,47.18C64.63,342.56,104.87,401.24,168.43,404.63z"/>
							</g>
							<g class="st0">
								
									<linearGradient id="SVGID_19_" gradientUnits="userSpaceOnUse" x1="7575.0698" y1="2277.8323" x2="7496.7661" y2="2203.7742" gradientTransform="matrix(-1.0291 8.578602e-03 -0.0517 1.0308 8107.8389 -2017.4348)">
									<stop  offset="0.0606" style="stop-color:#BA9B68"/>
									<stop  offset="0.0771" style="stop-color:#B39564"/>
									<stop  offset="0.1965" style="stop-color:#846E4A"/>
									<stop  offset="0.3197" style="stop-color:#5B4C33"/>
									<stop  offset="0.4451" style="stop-color:#3A3121"/>
									<stop  offset="0.5734" style="stop-color:#211B12"/>
									<stop  offset="0.7056" style="stop-color:#0E0C08"/>
									<stop  offset="0.8443" style="stop-color:#040302"/>
									<stop  offset="1" style="stop-color:#000000"/>
								</linearGradient>
								<path class="st20" d="M216.7,373.3c9.29-6.62,15.31-12.3,25.23-24.6c12.53-16.34,14.72-26.47,18.66-28.14
									c2.44-1.16,3.71,1.9,4.01,2.6c5.39,10.64-13.43,40.42-34.36,53.77c-11.9,8.61-28.81,15.28-31.66,13.47
									c-0.44-0.27-1.17-1.13-0.5-2.33C200.74,383.3,209.57,378.32,216.7,373.3z"/>
							</g>
						</g>
					</g>
				</g>
				<g>
					<g>
						<linearGradient id="SVGID_20_" gradientUnits="userSpaceOnUse" x1="192.0564" y1="305.3015" x2="238.1878" y2="305.3015">
							<stop  offset="0.023" style="stop-color:#D7D4FF;stop-opacity:0.8"/>
							<stop  offset="0.5903" style="stop-color:#FFFFFF;stop-opacity:0.5"/>
						</linearGradient>
						<path class="st21" d="M238.02,313.77c-4.52,2.92-9.08,5.86-13.66,8.63c-4.5-3.01-9.01-6.09-13.52-9.06
							c-0.09-5.47-0.17-10.94-0.26-16.4c4.4-2.8,8.8-5.7,13.2-8.55c4.75,2.97,9.49,6.14,14.19,9.28c0.05-8.29,0.1-16.58,0.15-24.86
							c-4.53-2.79-9.11-5.4-13.7-7.68c-0.79-0.46-1.78-0.4-2.58,0.14c-9.96,6.77-19.97,14.52-29.79,21.43c0,0.48,0,0.97,0,1.45
							c0.03,12.07,0.06,24.14,0.09,36.23c0.04,0.03,0.07,0.05,0.11,0.08c9.6,6.74,19.4,14.23,29.14,20.8
							c0.42,0.3,0.89,0.47,1.35,0.5c0.43,0.03,0.87-0.06,1.26-0.28c4.75-3.13,9.48-6.62,14.16-10.26
							C238.13,328.08,238.07,320.93,238.02,313.77z M222.95,267.33c0.11-0.07,0.25-0.08,0.36-0.02c4.21,2.06,8.41,4.39,12.58,6.88
							c-0.04,6.39-0.08,12.78-0.12,19.17c-3.96-2.66-7.95-5.3-11.96-7.79c-4.93,3.21-9.88,6.52-14.82,9.7
							c-4.74-3.07-9.47-5.83-14.16-8.09C204.12,280.73,213.56,273.6,222.95,267.33z M194.29,289.47c4.53,2.24,9.1,4.95,13.68,7.94
							c0.13,5.4,0.26,10.8,0.39,16.22c-4.69,2.82-9.36,5.38-13.99,7.47C194.35,310.55,194.32,300.01,194.29,289.47z M222.9,343.31
							c-0.1,0.05-0.23,0.03-0.37-0.07c-9.39-6.22-18.83-13.28-28.12-19.67c5.13-2.2,10.3-5,15.49-8.12
							c4.81,3.21,9.63,6.55,14.43,9.78c3.84-2.31,7.68-4.75,11.48-7.22c0.04,5.34,0.08,10.69,0.13,16.03
							C231.63,337.32,227.27,340.47,222.9,343.31z"/>
					</g>
				</g>
			</g>
			
				<linearGradient id="SVGID_21_" gradientUnits="userSpaceOnUse" x1="7982.877" y1="2745.188" x2="7964.353" y2="2805.3911" gradientTransform="matrix(-0.9998 -0.0197 -0.0197 0.9998 8195.0605 -2119.7188)">
				<stop  offset="0" style="stop-color:#FFF47F;stop-opacity:0.9"/>
				<stop  offset="0.1645" style="stop-color:#FFF17E;stop-opacity:0.9"/>
				<stop  offset="0.3017" style="stop-color:#FFE679;stop-opacity:0.9"/>
				<stop  offset="0.4291" style="stop-color:#FFD572;stop-opacity:0.9"/>
				<stop  offset="0.5506" style="stop-color:#FFBD68;stop-opacity:0.9"/>
				<stop  offset="0.668" style="stop-color:#FF9D5B;stop-opacity:0.9"/>
				<stop  offset="0.7822" style="stop-color:#FF764B;stop-opacity:0.9"/>
				<stop  offset="0.8917" style="stop-color:#FF4938;stop-opacity:0.9"/>
				<stop  offset="1" style="stop-color:#FF1522;stop-opacity:0.9"/>
			</linearGradient>
			<path class="st22" d="M240.49,496.42c-0.33,16.51-33.29,29.25-73.62,28.46c-40.33-0.8-72.76-14.83-72.44-31.34
				c0.33-16.51,33.29-29.25,73.62-28.46C208.38,465.88,240.81,479.91,240.49,496.42z"/>
		</g>
		<g>
			<g>
				<path class="st23" d="M135.51,280.17l-7.44-7.75c-1.46-1.52-1.43-3.99,0.07-5.53l60.83-62.64l12.71,13.24l-60.83,62.64
					C139.36,281.67,136.96,281.69,135.51,280.17z"/>
				
					<ellipse transform="matrix(0.2494 -0.9684 0.9684 0.2494 11.4868 357.5858)" class="st24" cx="236.42" cy="171.38" rx="55.01" ry="52.85"/>
				
					<ellipse transform="matrix(0.2494 -0.9684 0.9684 0.2494 11.2642 357.9165)" class="st25" cx="236.52" cy="171.69" rx="53.28" ry="51.19"/>
				<g class="st26">
					<path class="st27" d="M203.2,194.2c7.56-11.88,22.39-25.73,36.58-30.32c14.79-5.11,25.87-9.83,13.27-22.31
						c-22.76-16.71-11.3-15.58,4.91-9.5c18.86,8.71,26.03,18.84,27.52,24.83c1.37,6.37-2.93,8.6-9.72,10.41
						c-6.57,2.77-11.66,25.13-22.03,23.2c-4.86-0.58-13.18-3.32-22.11-3.24c-8.85-0.23-18.3,2.36-23.54,5.23
						C206.4,193.34,204.56,194.2,203.2,194.2z"/>
				</g>
			</g>
			<g>
				
					<linearGradient id="SVGID_22_" gradientUnits="userSpaceOnUse" x1="7288.5518" y1="-7351.8271" x2="7183.4282" y2="-7506.0996" gradientTransform="matrix(-0.22 0.9755 0.9755 0.22 8918.373 -5220.2427)">
					<stop  offset="0.2438" style="stop-color:#E93F33"/>
					<stop  offset="1" style="stop-color:#E79F3B"/>
				</linearGradient>
				<path class="st28" d="M140.72,248.31c-23.59-24.03-26-37.03-36.42-37.84c-1.2-0.09-7.31-0.57-12.7,3.22
					c-4.3,3.02-6.4,7.52-7.06,9.99c-3.99,14.96,33.68,44.77,54.81,53.06c4.61,1.81,16.96,6.66,21.19,1.94
					c1.73-1.93,1.51-4.82,1.33-6.88C161.06,262.68,144.28,251.93,140.72,248.31z"/>
				
					<linearGradient id="SVGID_23_" gradientUnits="userSpaceOnUse" x1="7294.3447" y1="-7342.7754" x2="7317.5166" y2="-7342.7754" gradientTransform="matrix(-0.2259 0.9742 0.9742 0.2259 8901.3184 -5222.083)">
					<stop  offset="0" style="stop-color:#000000"/>
					<stop  offset="1" style="stop-color:#BA9B68"/>
				</linearGradient>
				<path class="st29" d="M103.96,241.87c-2.54-2.59-4.04-4.89-7.04-9.48c-3.93-6.02-4.92-9.95-6.89-9.79
					c-1.28,0.1-2.1,1.87-2.28,2.27c-2.81,6.06,4.66,15.59,10.35,20.44c3.48,2.97,8.01,5.61,9.31,4.52c0.2-0.17,0.62-0.68,0.64-1.31
					C108.07,246.01,105.88,243.83,103.96,241.87z"/>
				
					<linearGradient id="SVGID_24_" gradientUnits="userSpaceOnUse" x1="7288.5518" y1="-7351.8271" x2="7183.4282" y2="-7506.0996" gradientTransform="matrix(-0.22 0.9755 0.9755 0.22 8918.373 -5220.2427)">
					<stop  offset="0" style="stop-color:#000000;stop-opacity:0.4"/>
					<stop  offset="1" style="stop-color:#6AFFF0"/>
				</linearGradient>
				<path class="st30" d="M140.72,248.31c-23.59-24.03-26-37.03-36.42-37.84c-1.2-0.09-7.31-0.57-12.7,3.22
					c-4.3,3.02-6.4,7.52-7.06,9.99c-3.99,14.96,33.68,44.77,54.81,53.06c4.61,1.81,16.96,6.66,21.19,1.94
					c1.73-1.93,1.51-4.82,1.33-6.88C161.06,262.68,144.28,251.93,140.72,248.31z"/>
			</g>
		</g>
	</g>
</g>
<g id="Calque_3">
</g>
</svg>
